<svg viewBox="0 0 105.833 105.833" xmlns="http://www.w3.org/2000/svg">
  <path d="M0 0v105.833h105.833V0Zm79.924 48.16c1.892-.001 4.025.172 5.166.47l-.053.053c2.699.635 4.763 1.852 6.615 3.784.979 1.058 2.434 2.91 2.54 3.386 0 .16-4.577 3.255-7.355 4.975-.106.08-.53-.37-.953-1.059-1.376-1.957-2.778-2.804-4.974-2.963-3.175-.212-5.292 1.455-5.292 4.233 0 .847.16 1.323.477 2.01.714 1.456 2.037 2.33 6.138 4.129 7.567 3.254 10.848 5.397 12.832 8.466 2.249 3.44 2.751 8.837 1.243 12.885-1.693 4.419-5.82 7.409-11.72 8.388-1.852.317-6.086.264-8.07-.08-4.234-.793-8.282-2.91-10.769-5.635-.979-1.059-2.857-3.89-2.751-4.075l1.005-.635 3.969-2.302 2.99-1.746.687.926c.873 1.376 2.831 3.228 3.97 3.863 3.439 1.773 8.042 1.534 10.318-.53.979-.899 1.402-1.851 1.402-3.174 0-1.217-.185-1.773-.793-2.699-.847-1.164-2.54-2.116-7.303-4.233-5.477-2.328-7.805-3.81-9.975-6.086-1.243-1.375-2.381-3.519-2.91-5.291-.397-1.535-.53-5.292-.159-6.8 1.138-5.292 5.133-8.996 10.848-10.055.695-.138 1.742-.203 2.877-.204zm-38.12.55c10.187 0 18.574.026 18.574.106.106.053.106 1.984.106 4.365v4.234H46.726v39.158h-9.763V57.415H23.204v-4.313l.08.026v-4.339z" fill="currentColor"/>
</svg>
